# xmcd
#
# Track frame offsets:
#	150
#	15942
#	29590
#	47987
#	68255
#	86400
#	99442
#	114772
#	132090
#	147370
#	162577
#	177100
#	194475
#	208627
#	226775
#	240152
#	254141
#	266754
#	285813
#	298625
#	314950
#	329155
#	344368
#
# Disc length: 4797 seconds
#
# Revision: 1
# Processed by: cddbd v1.5.2PL0 Copyright (c) Steve Scherf et al.
# Submitted via: EasyCDDAExtractor 12.0.0.1
#
DISCID=4f12bb17
DTITLE=Rod Stewart - Stardust: The Great American Songbook, Volume III
DYEAR=2005
DGENRE=Blues
TTITLE0=Embraceable You
TTITLE1=For Sentimental Reasons
TTITLE2=Blue Moon (feat. Eric Clapton)
TTITLE3=What a Wonderful World (feat. Stevie Wonder)
TTITLE4=Stardust
TTITLE5=Manhattan (feat. Bette Midler)
TTITLE6='S Wonderful
TTITLE7=Isn't It Romantic
TTITLE8=I Can't Get Started
TTITLE9=But Not for Me
TTITLE10=A Kiss to Build a Dream On
TTITLE11=Baby, It's Cold Outside (feat. Dolly Parton)
TTITLE12=Night and Day
TTITLE13=A Nightingale Sang in Berkeley Square
TTITLE14=Time After Time
TTITLE15=I’m In The Mood For Love
TTITLE16=Don’t Get Around Much Anymore
TTITLE17=Bewitched, Bothered and Bewildered
TTITLE18=’Till There Was You
TTITLE19=Until The Real Thing Comes Along
TTITLE20=Where Or When
TTITLE21=It Had To Be You
TTITLE22=They Can’t Take That Away From Me
EXTD=
EXTT0=
EXTT1=
EXTT2=
EXTT3=
EXTT4=
EXTT5=
EXTT6=
EXTT7=
EXTT8=
EXTT9=
EXTT10=
EXTT11=
EXTT12=
EXTT13=
EXTT14=
EXTT15=
EXTT16=
EXTT17=
EXTT18=
EXTT19=
EXTT20=
EXTT21=
EXTT22=
PLAYORDER=
